<?xml version="1.0" encoding="utf-8" standalone="no"?>
<!DOCTYPE svg PUBLIC "-//W3C//DTD SVG 1.1//EN"
  "http://www.w3.org/Graphics/SVG/1.1/DTD/svg11.dtd">
<svg xmlns:xlink="http://www.w3.org/1999/xlink" width="720pt" height="504pt" viewBox="0 0 720 504" xmlns="http://www.w3.org/2000/svg" version="1.1">
 <metadata>
  <rdf:RDF xmlns:dc="http://purl.org/dc/elements/1.1/" xmlns:cc="http://creativecommons.org/ns#" xmlns:rdf="http://www.w3.org/1999/02/22-rdf-syntax-ns#">
   <cc:Work>
    <dc:type rdf:resource="http://purl.org/dc/dcmitype/StillImage"/>
    <dc:date>2023-04-13T16:58:50.789252</dc:date>
    <dc:format>image/svg+xml</dc:format>
    <dc:creator>
     <cc:Agent>
      <dc:title>Matplotlib v3.6.3, https://matplotlib.org/</dc:title>
     </cc:Agent>
    </dc:creator>
   </cc:Work>
  </rdf:RDF>
 </metadata>
 <defs>
  <style type="text/css">*{stroke-linejoin: round; stroke-linecap: butt}</style>
 </defs>
 <g id="figure_1">
  <g id="patch_1">
   <path d="M 0 504 
L 720 504 
L 720 0 
L 0 0 
z
" style="fill: #ffffff"/>
  </g>
  <g id="axes_1">
   <g id="patch_2">
    <path d="M 90 448.56 
L 648 448.56 
L 648 60.48 
L 90 60.48 
z
" style="fill: #ffffff"/>
   </g>
   <g id="PathCollection_1">
    <defs>
     <path id="C0_0_c1dbdf7ac0" d="M 0 3 
C 0.795609 3 1.55874 2.683901 2.12132 2.12132 
C 2.683901 1.55874 3 0.795609 3 -0 
C 3 -0.795609 2.683901 -1.55874 2.12132 -2.12132 
C 1.55874 -2.683901 0.795609 -3 0 -3 
C -0.795609 -3 -1.55874 -2.683901 -2.12132 -2.12132 
C -2.683901 -1.55874 -3 -0.795609 -3 0 
C -3 0.795609 -2.683901 1.55874 -2.12132 2.12132 
C -1.55874 2.683901 -0.795609 3 0 3 
z
"/>
    </defs>
    <g clip-path="url(#pb107283299)">
     <use xlink:href="#C0_0_c1dbdf7ac0" x="194.479566" y="283.066058" style="fill: #287d8e; fill-opacity: 0.5; stroke: #287d8e; stroke-opacity: 0.5"/>
    </g>
    <g clip-path="url(#pb107283299)">
     <use xlink:href="#C0_0_c1dbdf7ac0" x="362.019183" y="157.902573" style="fill: #6ccd5a; fill-opacity: 0.5; stroke: #6ccd5a; stroke-opacity: 0.5"/>
    </g>
    <g clip-path="url(#pb107283299)">
     <use xlink:href="#C0_0_c1dbdf7ac0" x="317.341952" y="184.98473" style="fill: #42be71; fill-opacity: 0.5; stroke: #42be71; stroke-opacity: 0.5"/>
    </g>
    <g clip-path="url(#pb107283299)">
     <use xlink:href="#C0_0_c1dbdf7ac0" x="397.388657" y="180.593029" style="fill: #48c16e; fill-opacity: 0.5; stroke: #48c16e; stroke-opacity: 0.5"/>
    </g>
    <g clip-path="url(#pb107283299)">
     <use xlink:href="#C0_0_c1dbdf7ac0" x="325.718932" y="146.191369" style="fill: #7fd34e; fill-opacity: 0.5; stroke: #7fd34e; stroke-opacity: 0.5"/>
    </g>
    <g clip-path="url(#pb107283299)">
     <use xlink:href="#C0_0_c1dbdf7ac0" x="192.618015" y="257.447801" style="fill: #218e8d; fill-opacity: 0.5; stroke: #218e8d; stroke-opacity: 0.5"/>
    </g>
    <g clip-path="url(#pb107283299)">
     <use xlink:href="#C0_0_c1dbdf7ac0" x="240.087573" y="171.077676" style="fill: #56c667; fill-opacity: 0.5; stroke: #56c667; stroke-opacity: 0.5"/>
    </g>
    <g clip-path="url(#pb107283299)">
     <use xlink:href="#C0_0_c1dbdf7ac0" x="267.080067" y="78.12" style="fill: #fde725; fill-opacity: 0.5; stroke: #fde725; stroke-opacity: 0.5"/>
    </g>
    <g clip-path="url(#pb107283299)">
     <use xlink:href="#C0_0_c1dbdf7ac0" x="291.280234" y="167.417925" style="fill: #5cc863; fill-opacity: 0.5; stroke: #5cc863; stroke-opacity: 0.5"/>
    </g>
    <g clip-path="url(#pb107283299)">
     <use xlink:href="#C0_0_c1dbdf7ac0" x="369.465388" y="149.11917" style="fill: #7ad151; fill-opacity: 0.5; stroke: #7ad151; stroke-opacity: 0.5"/>
    </g>
    <g clip-path="url(#pb107283299)">
     <use xlink:href="#C0_0_c1dbdf7ac0" x="419.727273" y="103.006307" style="fill: #d0e11c; fill-opacity: 0.5; stroke: #d0e11c; stroke-opacity: 0.5"/>
    </g>
    <g clip-path="url(#pb107283299)">
     <use xlink:href="#C0_0_c1dbdf7ac0" x="171.210175" y="314.539917" style="fill: #31678e; fill-opacity: 0.5; stroke: #31678e; stroke-opacity: 0.5"/>
    </g>
    <g clip-path="url(#pb107283299)">
     <use xlink:href="#C0_0_c1dbdf7ac0" x="152.594662" y="271.354855" style="fill: #25848e; fill-opacity: 0.5; stroke: #25848e; stroke-opacity: 0.5"/>
    </g>
    <g clip-path="url(#pb107283299)">
     <use xlink:href="#C0_0_c1dbdf7ac0" x="187.033361" y="204.747386" style="fill: #2db27d; fill-opacity: 0.5; stroke: #2db27d; stroke-opacity: 0.5"/>
    </g>
    <g clip-path="url(#pb107283299)">
     <use xlink:href="#C0_0_c1dbdf7ac0" x="194.479566" y="211.334938" style="fill: #27ad81; fill-opacity: 0.5; stroke: #27ad81; stroke-opacity: 0.5"/>
    </g>
    <g clip-path="url(#pb107283299)">
     <use xlink:href="#C0_0_c1dbdf7ac0" x="198.202669" y="135.212116" style="fill: #93d741; fill-opacity: 0.5; stroke: #93d741; stroke-opacity: 0.5"/>
    </g>
    <g clip-path="url(#pb107283299)">
     <use xlink:href="#C0_0_c1dbdf7ac0" x="200.994996" y="89.831203" style="fill: #eae51a; fill-opacity: 0.5; stroke: #eae51a; stroke-opacity: 0.5"/>
    </g>
    <g clip-path="url(#pb107283299)">
     <use xlink:href="#C0_0_c1dbdf7ac0" x="221.47206" y="106.666058" style="fill: #cae11f; fill-opacity: 0.5; stroke: #cae11f; stroke-opacity: 0.5"/>
    </g>
    <g clip-path="url(#pb107283299)">
     <use xlink:href="#C0_0_c1dbdf7ac0" x="400.180984" y="184.25278" style="fill: #42be71; fill-opacity: 0.5; stroke: #42be71; stroke-opacity: 0.5"/>
    </g>
    <g clip-path="url(#pb107283299)">
     <use xlink:href="#C0_0_c1dbdf7ac0" x="217.748957" y="164.490124" style="fill: #60ca60; fill-opacity: 0.5; stroke: #60ca60; stroke-opacity: 0.5"/>
    </g>
    <g clip-path="url(#pb107283299)">
     <use xlink:href="#C0_0_c1dbdf7ac0" x="193.548791" y="227.437842" style="fill: #1fa287; fill-opacity: 0.5; stroke: #1fa287; stroke-opacity: 0.5"/>
    </g>
    <g clip-path="url(#pb107283299)">
     <use xlink:href="#C0_0_c1dbdf7ac0" x="321.065054" y="156.438672" style="fill: #6ece58; fill-opacity: 0.5; stroke: #6ece58; stroke-opacity: 0.5"/>
    </g>
    <g clip-path="url(#pb107283299)">
     <use xlink:href="#C0_0_c1dbdf7ac0" x="132.117598" y="346.745726" style="fill: #3c4f8a; fill-opacity: 0.5; stroke: #3c4f8a; stroke-opacity: 0.5"/>
    </g>
    <g clip-path="url(#pb107283299)">
     <use xlink:href="#C0_0_c1dbdf7ac0" x="151.663887" y="288.18971" style="fill: #29798e; fill-opacity: 0.5; stroke: #29798e; stroke-opacity: 0.5"/>
    </g>
    <g clip-path="url(#pb107283299)">
     <use xlink:href="#C0_0_c1dbdf7ac0" x="170.279399" y="244.272697" style="fill: #1f978b; fill-opacity: 0.5; stroke: #1f978b; stroke-opacity: 0.5"/>
    </g>
    <g clip-path="url(#pb107283299)">
     <use xlink:href="#C0_0_c1dbdf7ac0" x="223.333611" y="136.676017" style="fill: #90d743; fill-opacity: 0.5; stroke: #90d743; stroke-opacity: 0.5"/>
    </g>
    <g clip-path="url(#pb107283299)">
     <use xlink:href="#C0_0_c1dbdf7ac0" x="191.687239" y="228.169793" style="fill: #1fa287; fill-opacity: 0.5; stroke: #1fa287; stroke-opacity: 0.5"/>
    </g>
    <g clip-path="url(#pb107283299)">
     <use xlink:href="#C0_0_c1dbdf7ac0" x="286.626355" y="122.037012" style="fill: #addc30; fill-opacity: 0.5; stroke: #addc30; stroke-opacity: 0.5"/>
    </g>
    <g clip-path="url(#pb107283299)">
     <use xlink:href="#C0_0_c1dbdf7ac0" x="160.040867" y="343.085975" style="fill: #3b518b; fill-opacity: 0.5; stroke: #3b518b; stroke-opacity: 0.5"/>
    </g>
    <g clip-path="url(#pb107283299)">
     <use xlink:href="#C0_0_c1dbdf7ac0" x="226.125938" y="168.149876" style="fill: #5ac864; fill-opacity: 0.5; stroke: #5ac864; stroke-opacity: 0.5"/>
    </g>
    <g clip-path="url(#pb107283299)">
     <use xlink:href="#C0_0_c1dbdf7ac0" x="115.363636" y="408.961494" style="fill: #481769; fill-opacity: 0.5; stroke: #481769; stroke-opacity: 0.5"/>
    </g>
    <g clip-path="url(#pb107283299)">
     <use xlink:href="#C0_0_c1dbdf7ac0" x="140.494579" y="308.684315" style="fill: #2f6b8e; fill-opacity: 0.5; stroke: #2f6b8e; stroke-opacity: 0.5"/>
    </g>
    <g clip-path="url(#pb107283299)">
     <use xlink:href="#C0_0_c1dbdf7ac0" x="151.663887" y="285.261909" style="fill: #297b8e; fill-opacity: 0.5; stroke: #297b8e; stroke-opacity: 0.5"/>
    </g>
    <g clip-path="url(#pb107283299)">
     <use xlink:href="#C0_0_c1dbdf7ac0" x="194.479566" y="261.839502" style="fill: #228b8d; fill-opacity: 0.5; stroke: #228b8d; stroke-opacity: 0.5"/>
    </g>
    <g clip-path="url(#pb107283299)">
     <use xlink:href="#C0_0_c1dbdf7ac0" x="176.794829" y="282.334108" style="fill: #287d8e; fill-opacity: 0.5; stroke: #287d8e; stroke-opacity: 0.5"/>
    </g>
    <g clip-path="url(#pb107283299)">
     <use xlink:href="#C0_0_c1dbdf7ac0" x="231.710592" y="132.284315" style="fill: #98d83e; fill-opacity: 0.5; stroke: #98d83e; stroke-opacity: 0.5"/>
    </g>
    <g clip-path="url(#pb107283299)">
     <use xlink:href="#C0_0_c1dbdf7ac0" x="234.502919" y="192.304232" style="fill: #3aba76; fill-opacity: 0.5; stroke: #3aba76; stroke-opacity: 0.5"/>
    </g>
    <g clip-path="url(#pb107283299)">
     <use xlink:href="#C0_0_c1dbdf7ac0" x="241.018349" y="100.810456" style="fill: #d5e21a; fill-opacity: 0.5; stroke: #d5e21a; stroke-opacity: 0.5"/>
    </g>
    <g clip-path="url(#pb107283299)">
     <use xlink:href="#C0_0_c1dbdf7ac0" x="124.671393" y="430.92" style="fill: #440154; fill-opacity: 0.5; stroke: #440154; stroke-opacity: 0.5"/>
    </g>
    <g clip-path="url(#pb107283299)">
     <use xlink:href="#C0_0_c1dbdf7ac0" x="162.833194" y="316.735768" style="fill: #32658e; fill-opacity: 0.5; stroke: #32658e; stroke-opacity: 0.5"/>
    </g>
    <g clip-path="url(#pb107283299)">
     <use xlink:href="#C0_0_c1dbdf7ac0" x="230.779817" y="259.643651" style="fill: #228d8d; fill-opacity: 0.5; stroke: #228d8d; stroke-opacity: 0.5"/>
    </g>
    <g clip-path="url(#pb107283299)">
     <use xlink:href="#C0_0_c1dbdf7ac0" x="159.110092" y="335.034523" style="fill: #38588c; fill-opacity: 0.5; stroke: #38588c; stroke-opacity: 0.5"/>
    </g>
    <g clip-path="url(#pb107283299)">
     <use xlink:href="#C0_0_c1dbdf7ac0" x="209.371977" y="234.025394" style="fill: #1f9e89; fill-opacity: 0.5; stroke: #1f9e89; stroke-opacity: 0.5"/>
    </g>
    <g clip-path="url(#pb107283299)">
     <use xlink:href="#C0_0_c1dbdf7ac0" x="120.94829" y="335.766473" style="fill: #38588c; fill-opacity: 0.5; stroke: #38588c; stroke-opacity: 0.5"/>
    </g>
    <g clip-path="url(#pb107283299)">
     <use xlink:href="#C0_0_c1dbdf7ac0" x="139.563803" y="295.509212" style="fill: #2b748e; fill-opacity: 0.5; stroke: #2b748e; stroke-opacity: 0.5"/>
    </g>
    <g clip-path="url(#pb107283299)">
     <use xlink:href="#C0_0_c1dbdf7ac0" x="139.563803" y="344.549876" style="fill: #3c508b; fill-opacity: 0.5; stroke: #3c508b; stroke-opacity: 0.5"/>
    </g>
    <g clip-path="url(#pb107283299)">
     <use xlink:href="#C0_0_c1dbdf7ac0" x="175.864053" y="256.715851" style="fill: #218f8d; fill-opacity: 0.5; stroke: #218f8d; stroke-opacity: 0.5"/>
    </g>
    <g clip-path="url(#pb107283299)">
     <use xlink:href="#C0_0_c1dbdf7ac0" x="492.327773" y="93.490954" style="fill: #e2e418; fill-opacity: 0.5; stroke: #e2e418; stroke-opacity: 0.5"/>
    </g>
    <g clip-path="url(#pb107283299)">
     <use xlink:href="#C0_0_c1dbdf7ac0" x="307.10342" y="165.222075" style="fill: #5ec962; fill-opacity: 0.5; stroke: #5ec962; stroke-opacity: 0.5"/>
    </g>
    <g clip-path="url(#pb107283299)">
     <use xlink:href="#C0_0_c1dbdf7ac0" x="374.119266" y="164.490124" style="fill: #60ca60; fill-opacity: 0.5; stroke: #60ca60; stroke-opacity: 0.5"/>
    </g>
    <g clip-path="url(#pb107283299)">
     <use xlink:href="#C0_0_c1dbdf7ac0" x="365.742285" y="138.139917" style="fill: #8ed645; fill-opacity: 0.5; stroke: #8ed645; stroke-opacity: 0.5"/>
    </g>
    <g clip-path="url(#pb107283299)">
     <use xlink:href="#C0_0_c1dbdf7ac0" x="382.496247" y="85.439502" style="fill: #f1e51d; fill-opacity: 0.5; stroke: #f1e51d; stroke-opacity: 0.5"/>
    </g>
    <g clip-path="url(#pb107283299)">
     <use xlink:href="#C0_0_c1dbdf7ac0" x="123.740617" y="338.694274" style="fill: #3a548c; fill-opacity: 0.5; stroke: #3a548c; stroke-opacity: 0.5"/>
    </g>
    <g clip-path="url(#pb107283299)">
     <use xlink:href="#C0_0_c1dbdf7ac0" x="154.456214" y="321.859419" style="fill: #33628d; fill-opacity: 0.5; stroke: #33628d; stroke-opacity: 0.5"/>
    </g>
    <g clip-path="url(#pb107283299)">
     <use xlink:href="#C0_0_c1dbdf7ac0" x="200.06422" y="244.272697" style="fill: #1f978b; fill-opacity: 0.5; stroke: #1f978b; stroke-opacity: 0.5"/>
    </g>
    <g clip-path="url(#pb107283299)">
     <use xlink:href="#C0_0_c1dbdf7ac0" x="224.264387" y="132.284315" style="fill: #98d83e; fill-opacity: 0.5; stroke: #98d83e; stroke-opacity: 0.5"/>
    </g>
    <g clip-path="url(#pb107283299)">
     <use xlink:href="#C0_0_c1dbdf7ac0" x="348.988324" y="255.25195" style="fill: #21908d; fill-opacity: 0.5; stroke: #21908d; stroke-opacity: 0.5"/>
    </g>
    <g clip-path="url(#pb107283299)">
     <use xlink:href="#C0_0_c1dbdf7ac0" x="343.40367" y="251.592199" style="fill: #20928c; fill-opacity: 0.5; stroke: #20928c; stroke-opacity: 0.5"/>
    </g>
    <g clip-path="url(#pb107283299)">
     <use xlink:href="#C0_0_c1dbdf7ac0" x="622.636364" y="163.026224" style="fill: #63cb5f; fill-opacity: 0.5; stroke: #63cb5f; stroke-opacity: 0.5"/>
    </g>
    <g clip-path="url(#pb107283299)">
     <use xlink:href="#C0_0_c1dbdf7ac0" x="177.725605" y="320.395519" style="fill: #33638d; fill-opacity: 0.5; stroke: #33638d; stroke-opacity: 0.5"/>
    </g>
    <g clip-path="url(#pb107283299)">
     <use xlink:href="#C0_0_c1dbdf7ac0" x="185.17181" y="150.583071" style="fill: #77d153; fill-opacity: 0.5; stroke: #77d153; stroke-opacity: 0.5"/>
    </g>
    <g clip-path="url(#pb107283299)">
     <use xlink:href="#C0_0_c1dbdf7ac0" x="142.35613" y="343.085975" style="fill: #3b518b; fill-opacity: 0.5; stroke: #3b518b; stroke-opacity: 0.5"/>
    </g>
    <g clip-path="url(#pb107283299)">
     <use xlink:href="#C0_0_c1dbdf7ac0" x="289.418682" y="133.016266" style="fill: #98d83e; fill-opacity: 0.5; stroke: #98d83e; stroke-opacity: 0.5"/>
    </g>
    <g clip-path="url(#pb107283299)">
     <use xlink:href="#C0_0_c1dbdf7ac0" x="156.317765" y="306.488465" style="fill: #2e6d8e; fill-opacity: 0.5; stroke: #2e6d8e; stroke-opacity: 0.5"/>
    </g>
    <g clip-path="url(#pb107283299)">
     <use xlink:href="#C0_0_c1dbdf7ac0" x="192.618015" y="232.561494" style="fill: #1f9f88; fill-opacity: 0.5; stroke: #1f9f88; stroke-opacity: 0.5"/>
    </g>
    <g clip-path="url(#pb107283299)">
     <use xlink:href="#C0_0_c1dbdf7ac0" x="224.264387" y="78.85195" style="fill: #fde725; fill-opacity: 0.5; stroke: #fde725; stroke-opacity: 0.5"/>
    </g>
    <g clip-path="url(#pb107283299)">
     <use xlink:href="#C0_0_c1dbdf7ac0" x="246.603003" y="210.602988" style="fill: #27ad81; fill-opacity: 0.5; stroke: #27ad81; stroke-opacity: 0.5"/>
    </g>
    <g clip-path="url(#pb107283299)">
     <use xlink:href="#C0_0_c1dbdf7ac0" x="172.140951" y="253.0561" style="fill: #20928c; fill-opacity: 0.5; stroke: #20928c; stroke-opacity: 0.5"/>
    </g>
    <g clip-path="url(#pb107283299)">
     <use xlink:href="#C0_0_c1dbdf7ac0" x="198.202669" y="255.9839" style="fill: #218f8d; fill-opacity: 0.5; stroke: #218f8d; stroke-opacity: 0.5"/>
    </g>
    <g clip-path="url(#pb107283299)">
     <use xlink:href="#C0_0_c1dbdf7ac0" x="227.98749" y="135.212116" style="fill: #93d741; fill-opacity: 0.5; stroke: #93d741; stroke-opacity: 0.5"/>
    </g>
    <g clip-path="url(#pb107283299)">
     <use xlink:href="#C0_0_c1dbdf7ac0" x="239.156797" y="171.077676" style="fill: #56c667; fill-opacity: 0.5; stroke: #56c667; stroke-opacity: 0.5"/>
    </g>
    <g clip-path="url(#pb107283299)">
     <use xlink:href="#C0_0_c1dbdf7ac0" x="180.517932" y="292.581411" style="fill: #2a768e; fill-opacity: 0.5; stroke: #2a768e; stroke-opacity: 0.5"/>
    </g>
    <g clip-path="url(#pb107283299)">
     <use xlink:href="#C0_0_c1dbdf7ac0" x="130.256047" y="335.034523" style="fill: #38588c; fill-opacity: 0.5; stroke: #38588c; stroke-opacity: 0.5"/>
    </g>
    <g clip-path="url(#pb107283299)">
     <use xlink:href="#C0_0_c1dbdf7ac0" x="149.802335" y="302.096763" style="fill: #2d708e; fill-opacity: 0.5; stroke: #2d708e; stroke-opacity: 0.5"/>
    </g>
    <g clip-path="url(#pb107283299)">
     <use xlink:href="#C0_0_c1dbdf7ac0" x="211.233528" y="204.747386" style="fill: #2db27d; fill-opacity: 0.5; stroke: #2db27d; stroke-opacity: 0.5"/>
    </g>
    <g clip-path="url(#pb107283299)">
     <use xlink:href="#C0_0_c1dbdf7ac0" x="218.679733" y="174.005477" style="fill: #52c569; fill-opacity: 0.5; stroke: #52c569; stroke-opacity: 0.5"/>
    </g>
    <g clip-path="url(#pb107283299)">
     <use xlink:href="#C0_0_c1dbdf7ac0" x="273.595496" y="167.417925" style="fill: #5cc863; fill-opacity: 0.5; stroke: #5cc863; stroke-opacity: 0.5"/>
    </g>
    <g clip-path="url(#pb107283299)">
     <use xlink:href="#C0_0_c1dbdf7ac0" x="313.618849" y="272.818755" style="fill: #25838e; fill-opacity: 0.5; stroke: #25838e; stroke-opacity: 0.5"/>
    </g>
    <g clip-path="url(#pb107283299)">
     <use xlink:href="#C0_0_c1dbdf7ac0" x="149.802335" y="313.807967" style="fill: #31678e; fill-opacity: 0.5; stroke: #31678e; stroke-opacity: 0.5"/>
    </g>
    <g clip-path="url(#pb107283299)">
     <use xlink:href="#C0_0_c1dbdf7ac0" x="124.671393" y="379.683485" style="fill: #46337f; fill-opacity: 0.5; stroke: #46337f; stroke-opacity: 0.5"/>
    </g>
    <g clip-path="url(#pb107283299)">
     <use xlink:href="#C0_0_c1dbdf7ac0" x="147.940784" y="314.539917" style="fill: #31678e; fill-opacity: 0.5; stroke: #31678e; stroke-opacity: 0.5"/>
    </g>
    <g clip-path="url(#pb107283299)">
     <use xlink:href="#C0_0_c1dbdf7ac0" x="227.98749" y="227.437842" style="fill: #1fa287; fill-opacity: 0.5; stroke: #1fa287; stroke-opacity: 0.5"/>
    </g>
    <g clip-path="url(#pb107283299)">
     <use xlink:href="#C0_0_c1dbdf7ac0" x="126.532944" y="391.394689" style="fill: #482878; fill-opacity: 0.5; stroke: #482878; stroke-opacity: 0.5"/>
    </g>
    <g clip-path="url(#pb107283299)">
     <use xlink:href="#C0_0_c1dbdf7ac0" x="137.702252" y="378.219585" style="fill: #463480; fill-opacity: 0.5; stroke: #463480; stroke-opacity: 0.5"/>
    </g>
    <g clip-path="url(#pb107283299)">
     <use xlink:href="#C0_0_c1dbdf7ac0" x="217.748957" y="247.200498" style="fill: #1f958b; fill-opacity: 0.5; stroke: #1f958b; stroke-opacity: 0.5"/>
    </g>
    <g clip-path="url(#pb107283299)">
     <use xlink:href="#C0_0_c1dbdf7ac0" x="215.887406" y="235.489295" style="fill: #1e9d89; fill-opacity: 0.5; stroke: #1e9d89; stroke-opacity: 0.5"/>
    </g>
    <g clip-path="url(#pb107283299)">
     <use xlink:href="#C0_0_c1dbdf7ac0" x="257.77231" y="124.964813" style="fill: #a8db34; fill-opacity: 0.5; stroke: #a8db34; stroke-opacity: 0.5"/>
    </g>
    <g clip-path="url(#pb107283299)">
     <use xlink:href="#C0_0_c1dbdf7ac0" x="131.186822" y="351.137427" style="fill: #3e4a89; fill-opacity: 0.5; stroke: #3e4a89; stroke-opacity: 0.5"/>
    </g>
    <g clip-path="url(#pb107283299)">
     <use xlink:href="#C0_0_c1dbdf7ac0" x="229.849041" y="99.346556" style="fill: #d8e219; fill-opacity: 0.5; stroke: #d8e219; stroke-opacity: 0.5"/>
    </g>
    <g clip-path="url(#pb107283299)">
     <use xlink:href="#C0_0_c1dbdf7ac0" x="232.641368" y="242.076846" style="fill: #1f998a; fill-opacity: 0.5; stroke: #1f998a; stroke-opacity: 0.5"/>
    </g>
    <g clip-path="url(#pb107283299)">
     <use xlink:href="#C0_0_c1dbdf7ac0" x="263.356964" y="267.695104" style="fill: #24878e; fill-opacity: 0.5; stroke: #24878e; stroke-opacity: 0.5"/>
    </g>
    <g clip-path="url(#pb107283299)">
     <use xlink:href="#C0_0_c1dbdf7ac0" x="257.77231" y="242.076846" style="fill: #1f998a; fill-opacity: 0.5; stroke: #1f998a; stroke-opacity: 0.5"/>
    </g>
    <g clip-path="url(#pb107283299)">
     <use xlink:href="#C0_0_c1dbdf7ac0" x="295.003336" y="204.015436" style="fill: #2db27d; fill-opacity: 0.5; stroke: #2db27d; stroke-opacity: 0.5"/>
    </g>
   </g>
   <g id="matplotlib.axis_1">
    <g id="xtick_1">
     <g id="line2d_1">
      <defs>
       <path id="m8a23853d6b" d="M 0 0 
L 0 3.5 
" style="stroke: #000000; stroke-width: 0.8"/>
      </defs>
      <g>
       <use xlink:href="#m8a23853d6b" x="139.563803" y="448.56" style="stroke: #000000; stroke-width: 0.8"/>
      </g>
     </g>
     <g id="text_1">
      <!-- 10 -->
      <g transform="translate(133.201303 463.158437) scale(0.1 -0.1)">
       <defs>
        <path id="DejaVuSans-31" d="M 794 531 
L 1825 531 
L 1825 4091 
L 703 3866 
L 703 4441 
L 1819 4666 
L 2450 4666 
L 2450 531 
L 3481 531 
L 3481 0 
L 794 0 
L 794 531 
z
" transform="scale(0.015625)"/>
        <path id="DejaVuSans-30" d="M 2034 4250 
Q 1547 4250 1301 3770 
Q 1056 3291 1056 2328 
Q 1056 1369 1301 889 
Q 1547 409 2034 409 
Q 2525 409 2770 889 
Q 3016 1369 3016 2328 
Q 3016 3291 2770 3770 
Q 2525 4250 2034 4250 
z
M 2034 4750 
Q 2819 4750 3233 4129 
Q 3647 3509 3647 2328 
Q 3647 1150 3233 529 
Q 2819 -91 2034 -91 
Q 1250 -91 836 529 
Q 422 1150 422 2328 
Q 422 3509 836 4129 
Q 1250 4750 2034 4750 
z
" transform="scale(0.015625)"/>
       </defs>
       <use xlink:href="#DejaVuSans-31"/>
       <use xlink:href="#DejaVuSans-30" x="63.623047"/>
      </g>
     </g>
    </g>
    <g id="xtick_2">
     <g id="line2d_2">
      <g>
       <use xlink:href="#m8a23853d6b" x="232.641368" y="448.56" style="stroke: #000000; stroke-width: 0.8"/>
      </g>
     </g>
     <g id="text_2">
      <!-- 20 -->
      <g transform="translate(226.278868 463.158437) scale(0.1 -0.1)">
       <defs>
        <path id="DejaVuSans-32" d="M 1228 531 
L 3431 531 
L 3431 0 
L 469 0 
L 469 531 
Q 828 903 1448 1529 
Q 2069 2156 2228 2338 
Q 2531 2678 2651 2914 
Q 2772 3150 2772 3378 
Q 2772 3750 2511 3984 
Q 2250 4219 1831 4219 
Q 1534 4219 1204 4116 
Q 875 4013 500 3803 
L 500 4441 
Q 881 4594 1212 4672 
Q 1544 4750 1819 4750 
Q 2544 4750 2975 4387 
Q 3406 4025 3406 3419 
Q 3406 3131 3298 2873 
Q 3191 2616 2906 2266 
Q 2828 2175 2409 1742 
Q 1991 1309 1228 531 
z
" transform="scale(0.015625)"/>
       </defs>
       <use xlink:href="#DejaVuSans-32"/>
       <use xlink:href="#DejaVuSans-30" x="63.623047"/>
      </g>
     </g>
    </g>
    <g id="xtick_3">
     <g id="line2d_3">
      <g>
       <use xlink:href="#m8a23853d6b" x="325.718932" y="448.56" style="stroke: #000000; stroke-width: 0.8"/>
      </g>
     </g>
     <g id="text_3">
      <!-- 30 -->
      <g transform="translate(319.356432 463.158437) scale(0.1 -0.1)">
       <defs>
        <path id="DejaVuSans-33" d="M 2597 2516 
Q 3050 2419 3304 2112 
Q 3559 1806 3559 1356 
Q 3559 666 3084 287 
Q 2609 -91 1734 -91 
Q 1441 -91 1130 -33 
Q 819 25 488 141 
L 488 750 
Q 750 597 1062 519 
Q 1375 441 1716 441 
Q 2309 441 2620 675 
Q 2931 909 2931 1356 
Q 2931 1769 2642 2001 
Q 2353 2234 1838 2234 
L 1294 2234 
L 1294 2753 
L 1863 2753 
Q 2328 2753 2575 2939 
Q 2822 3125 2822 3475 
Q 2822 3834 2567 4026 
Q 2313 4219 1838 4219 
Q 1578 4219 1281 4162 
Q 984 4106 628 3988 
L 628 4550 
Q 988 4650 1302 4700 
Q 1616 4750 1894 4750 
Q 2613 4750 3031 4423 
Q 3450 4097 3450 3541 
Q 3450 3153 3228 2886 
Q 3006 2619 2597 2516 
z
" transform="scale(0.015625)"/>
       </defs>
       <use xlink:href="#DejaVuSans-33"/>
       <use xlink:href="#DejaVuSans-30" x="63.623047"/>
      </g>
     </g>
    </g>
    <g id="xtick_4">
     <g id="line2d_4">
      <g>
       <use xlink:href="#m8a23853d6b" x="418.796497" y="448.56" style="stroke: #000000; stroke-width: 0.8"/>
      </g>
     </g>
     <g id="text_4">
      <!-- 40 -->
      <g transform="translate(412.433997 463.158437) scale(0.1 -0.1)">
       <defs>
        <path id="DejaVuSans-34" d="M 2419 4116 
L 825 1625 
L 2419 1625 
L 2419 4116 
z
M 2253 4666 
L 3047 4666 
L 3047 1625 
L 3713 1625 
L 3713 1100 
L 3047 1100 
L 3047 0 
L 2419 0 
L 2419 1100 
L 313 1100 
L 313 1709 
L 2253 4666 
z
" transform="scale(0.015625)"/>
       </defs>
       <use xlink:href="#DejaVuSans-34"/>
       <use xlink:href="#DejaVuSans-30" x="63.623047"/>
      </g>
     </g>
    </g>
    <g id="xtick_5">
     <g id="line2d_5">
      <g>
       <use xlink:href="#m8a23853d6b" x="511.874062" y="448.56" style="stroke: #000000; stroke-width: 0.8"/>
      </g>
     </g>
     <g id="text_5">
      <!-- 50 -->
      <g transform="translate(505.511562 463.158437) scale(0.1 -0.1)">
       <defs>
        <path id="DejaVuSans-35" d="M 691 4666 
L 3169 4666 
L 3169 4134 
L 1269 4134 
L 1269 2991 
Q 1406 3038 1543 3061 
Q 1681 3084 1819 3084 
Q 2600 3084 3056 2656 
Q 3513 2228 3513 1497 
Q 3513 744 3044 326 
Q 2575 -91 1722 -91 
Q 1428 -91 1123 -41 
Q 819 9 494 109 
L 494 744 
Q 775 591 1075 516 
Q 1375 441 1709 441 
Q 2250 441 2565 725 
Q 2881 1009 2881 1497 
Q 2881 1984 2565 2268 
Q 2250 2553 1709 2553 
Q 1456 2553 1204 2497 
Q 953 2441 691 2322 
L 691 4666 
z
" transform="scale(0.015625)"/>
       </defs>
       <use xlink:href="#DejaVuSans-35"/>
       <use xlink:href="#DejaVuSans-30" x="63.623047"/>
      </g>
     </g>
    </g>
    <g id="xtick_6">
     <g id="line2d_6">
      <g>
       <use xlink:href="#m8a23853d6b" x="604.951626" y="448.56" style="stroke: #000000; stroke-width: 0.8"/>
      </g>
     </g>
     <g id="text_6">
      <!-- 60 -->
      <g transform="translate(598.589126 463.158437) scale(0.1 -0.1)">
       <defs>
        <path id="DejaVuSans-36" d="M 2113 2584 
Q 1688 2584 1439 2293 
Q 1191 2003 1191 1497 
Q 1191 994 1439 701 
Q 1688 409 2113 409 
Q 2538 409 2786 701 
Q 3034 994 3034 1497 
Q 3034 2003 2786 2293 
Q 2538 2584 2113 2584 
z
M 3366 4563 
L 3366 3988 
Q 3128 4100 2886 4159 
Q 2644 4219 2406 4219 
Q 1781 4219 1451 3797 
Q 1122 3375 1075 2522 
Q 1259 2794 1537 2939 
Q 1816 3084 2150 3084 
Q 2853 3084 3261 2657 
Q 3669 2231 3669 1497 
Q 3669 778 3244 343 
Q 2819 -91 2113 -91 
Q 1303 -91 875 529 
Q 447 1150 447 2328 
Q 447 3434 972 4092 
Q 1497 4750 2381 4750 
Q 2619 4750 2861 4703 
Q 3103 4656 3366 4563 
z
" transform="scale(0.015625)"/>
       </defs>
       <use xlink:href="#DejaVuSans-36"/>
       <use xlink:href="#DejaVuSans-30" x="63.623047"/>
      </g>
     </g>
    </g>
    <g id="text_7">
     <!-- Precio -->
     <g transform="translate(353.855469 476.836563) scale(0.1 -0.1)">
      <defs>
       <path id="DejaVuSans-50" d="M 1259 4147 
L 1259 2394 
L 2053 2394 
Q 2494 2394 2734 2622 
Q 2975 2850 2975 3272 
Q 2975 3691 2734 3919 
Q 2494 4147 2053 4147 
L 1259 4147 
z
M 628 4666 
L 2053 4666 
Q 2838 4666 3239 4311 
Q 3641 3956 3641 3272 
Q 3641 2581 3239 2228 
Q 2838 1875 2053 1875 
L 1259 1875 
L 1259 0 
L 628 0 
L 628 4666 
z
" transform="scale(0.015625)"/>
       <path id="DejaVuSans-72" d="M 2631 2963 
Q 2534 3019 2420 3045 
Q 2306 3072 2169 3072 
Q 1681 3072 1420 2755 
Q 1159 2438 1159 1844 
L 1159 0 
L 581 0 
L 581 3500 
L 1159 3500 
L 1159 2956 
Q 1341 3275 1631 3429 
Q 1922 3584 2338 3584 
Q 2397 3584 2469 3576 
Q 2541 3569 2628 3553 
L 2631 2963 
z
" transform="scale(0.015625)"/>
       <path id="DejaVuSans-65" d="M 3597 1894 
L 3597 1613 
L 953 1613 
Q 991 1019 1311 708 
Q 1631 397 2203 397 
Q 2534 397 2845 478 
Q 3156 559 3463 722 
L 3463 178 
Q 3153 47 2828 -22 
Q 2503 -91 2169 -91 
Q 1331 -91 842 396 
Q 353 884 353 1716 
Q 353 2575 817 3079 
Q 1281 3584 2069 3584 
Q 2775 3584 3186 3129 
Q 3597 2675 3597 1894 
z
M 3022 2063 
Q 3016 2534 2758 2815 
Q 2500 3097 2075 3097 
Q 1594 3097 1305 2825 
Q 1016 2553 972 2059 
L 3022 2063 
z
" transform="scale(0.015625)"/>
       <path id="DejaVuSans-63" d="M 3122 3366 
L 3122 2828 
Q 2878 2963 2633 3030 
Q 2388 3097 2138 3097 
Q 1578 3097 1268 2742 
Q 959 2388 959 1747 
Q 959 1106 1268 751 
Q 1578 397 2138 397 
Q 2388 397 2633 464 
Q 2878 531 3122 666 
L 3122 134 
Q 2881 22 2623 -34 
Q 2366 -91 2075 -91 
Q 1284 -91 818 406 
Q 353 903 353 1747 
Q 353 2603 823 3093 
Q 1294 3584 2113 3584 
Q 2378 3584 2631 3529 
Q 2884 3475 3122 3366 
z
" transform="scale(0.015625)"/>
       <path id="DejaVuSans-69" d="M 603 3500 
L 1178 3500 
L 1178 0 
L 603 0 
L 603 3500 
z
M 603 4863 
L 1178 4863 
L 1178 4134 
L 603 4134 
L 603 4863 
z
" transform="scale(0.015625)"/>
       <path id="DejaVuSans-6f" d="M 1959 3097 
Q 1497 3097 1228 2736 
Q 959 2375 959 1747 
Q 959 1119 1226 758 
Q 1494 397 1959 397 
Q 2419 397 2687 759 
Q 2956 1122 2956 1747 
Q 2956 2369 2687 2733 
Q 2419 3097 1959 3097 
z
M 1959 3584 
Q 2709 3584 3137 3096 
Q 3566 2609 3566 1747 
Q 3566 888 3137 398 
Q 2709 -91 1959 -91 
Q 1206 -91 779 398 
Q 353 888 353 1747 
Q 353 2609 779 3096 
Q 1206 3584 1959 3584 
z
" transform="scale(0.015625)"/>
      </defs>
      <use xlink:href="#DejaVuSans-50"/>
      <use xlink:href="#DejaVuSans-72" x="58.552734"/>
      <use xlink:href="#DejaVuSans-65" x="97.416016"/>
      <use xlink:href="#DejaVuSans-63" x="158.939453"/>
      <use xlink:href="#DejaVuSans-69" x="213.919922"/>
      <use xlink:href="#DejaVuSans-6f" x="241.703125"/>
     </g>
    </g>
   </g>
   <g id="matplotlib.axis_2">
    <g id="ytick_1">
     <g id="line2d_7">
      <defs>
       <path id="mc940567bb3" d="M 0 0 
L -3.5 0 
" style="stroke: #000000; stroke-width: 0.8"/>
      </defs>
      <g>
       <use xlink:href="#mc940567bb3" x="90" y="386.271037" style="stroke: #000000; stroke-width: 0.8"/>
      </g>
     </g>
     <g id="text_8">
      <!-- 2000 -->
      <g transform="translate(57.55 390.070256) scale(0.1 -0.1)">
       <use xlink:href="#DejaVuSans-32"/>
       <use xlink:href="#DejaVuSans-30" x="63.623047"/>
       <use xlink:href="#DejaVuSans-30" x="127.246094"/>
       <use xlink:href="#DejaVuSans-30" x="190.869141"/>
      </g>
     </g>
    </g>
    <g id="ytick_2">
     <g id="line2d_8">
      <g>
       <use xlink:href="#mc940567bb3" x="90" y="313.076017" style="stroke: #000000; stroke-width: 0.8"/>
      </g>
     </g>
     <g id="text_9">
      <!-- 2500 -->
      <g transform="translate(57.55 316.875235) scale(0.1 -0.1)">
       <use xlink:href="#DejaVuSans-32"/>
       <use xlink:href="#DejaVuSans-35" x="63.623047"/>
       <use xlink:href="#DejaVuSans-30" x="127.246094"/>
       <use xlink:href="#DejaVuSans-30" x="190.869141"/>
      </g>
     </g>
    </g>
    <g id="ytick_3">
     <g id="line2d_9">
      <g>
       <use xlink:href="#mc940567bb3" x="90" y="239.880996" style="stroke: #000000; stroke-width: 0.8"/>
      </g>
     </g>
     <g id="text_10">
      <!-- 3000 -->
      <g transform="translate(57.55 243.680215) scale(0.1 -0.1)">
       <use xlink:href="#DejaVuSans-33"/>
       <use xlink:href="#DejaVuSans-30" x="63.623047"/>
       <use xlink:href="#DejaVuSans-30" x="127.246094"/>
       <use xlink:href="#DejaVuSans-30" x="190.869141"/>
      </g>
     </g>
    </g>
    <g id="ytick_4">
     <g id="line2d_10">
      <g>
       <use xlink:href="#mc940567bb3" x="90" y="166.685975" style="stroke: #000000; stroke-width: 0.8"/>
      </g>
     </g>
     <g id="text_11">
      <!-- 3500 -->
      <g transform="translate(57.55 170.485194) scale(0.1 -0.1)">
       <use xlink:href="#DejaVuSans-33"/>
       <use xlink:href="#DejaVuSans-35" x="63.623047"/>
       <use xlink:href="#DejaVuSans-30" x="127.246094"/>
       <use xlink:href="#DejaVuSans-30" x="190.869141"/>
      </g>
     </g>
    </g>
    <g id="ytick_5">
     <g id="line2d_11">
      <g>
       <use xlink:href="#mc940567bb3" x="90" y="93.490954" style="stroke: #000000; stroke-width: 0.8"/>
      </g>
     </g>
     <g id="text_12">
      <!-- 4000 -->
      <g transform="translate(57.55 97.290173) scale(0.1 -0.1)">
       <use xlink:href="#DejaVuSans-34"/>
       <use xlink:href="#DejaVuSans-30" x="63.623047"/>
       <use xlink:href="#DejaVuSans-30" x="127.246094"/>
       <use xlink:href="#DejaVuSans-30" x="190.869141"/>
      </g>
     </g>
    </g>
    <g id="text_13">
     <!-- Peso -->
     <g transform="translate(51.470312 266.094219) rotate(-90) scale(0.1 -0.1)">
      <defs>
       <path id="DejaVuSans-73" d="M 2834 3397 
L 2834 2853 
Q 2591 2978 2328 3040 
Q 2066 3103 1784 3103 
Q 1356 3103 1142 2972 
Q 928 2841 928 2578 
Q 928 2378 1081 2264 
Q 1234 2150 1697 2047 
L 1894 2003 
Q 2506 1872 2764 1633 
Q 3022 1394 3022 966 
Q 3022 478 2636 193 
Q 2250 -91 1575 -91 
Q 1294 -91 989 -36 
Q 684 19 347 128 
L 347 722 
Q 666 556 975 473 
Q 1284 391 1588 391 
Q 1994 391 2212 530 
Q 2431 669 2431 922 
Q 2431 1156 2273 1281 
Q 2116 1406 1581 1522 
L 1381 1569 
Q 847 1681 609 1914 
Q 372 2147 372 2553 
Q 372 3047 722 3315 
Q 1072 3584 1716 3584 
Q 2034 3584 2315 3537 
Q 2597 3491 2834 3397 
z
" transform="scale(0.015625)"/>
      </defs>
      <use xlink:href="#DejaVuSans-50"/>
      <use xlink:href="#DejaVuSans-65" x="56.677734"/>
      <use xlink:href="#DejaVuSans-73" x="118.201172"/>
      <use xlink:href="#DejaVuSans-6f" x="170.300781"/>
     </g>
    </g>
   </g>
   <g id="patch_3">
    <path d="M 90 448.56 
L 90 60.48 
" style="fill: none; stroke: #000000; stroke-width: 0.8; stroke-linejoin: miter; stroke-linecap: square"/>
   </g>
   <g id="patch_4">
    <path d="M 648 448.56 
L 648 60.48 
" style="fill: none; stroke: #000000; stroke-width: 0.8; stroke-linejoin: miter; stroke-linecap: square"/>
   </g>
   <g id="patch_5">
    <path d="M 90 448.56 
L 648 448.56 
" style="fill: none; stroke: #000000; stroke-width: 0.8; stroke-linejoin: miter; stroke-linecap: square"/>
   </g>
   <g id="patch_6">
    <path d="M 90 60.48 
L 648 60.48 
" style="fill: none; stroke: #000000; stroke-width: 0.8; stroke-linejoin: miter; stroke-linecap: square"/>
   </g>
   <g id="text_14">
    <!-- Relación Peso vs.precio -->
    <g transform="translate(298.869375 54.48) scale(0.12 -0.12)">
     <defs>
      <path id="DejaVuSans-52" d="M 2841 2188 
Q 3044 2119 3236 1894 
Q 3428 1669 3622 1275 
L 4263 0 
L 3584 0 
L 2988 1197 
Q 2756 1666 2539 1819 
Q 2322 1972 1947 1972 
L 1259 1972 
L 1259 0 
L 628 0 
L 628 4666 
L 2053 4666 
Q 2853 4666 3247 4331 
Q 3641 3997 3641 3322 
Q 3641 2881 3436 2590 
Q 3231 2300 2841 2188 
z
M 1259 4147 
L 1259 2491 
L 2053 2491 
Q 2509 2491 2742 2702 
Q 2975 2913 2975 3322 
Q 2975 3731 2742 3939 
Q 2509 4147 2053 4147 
L 1259 4147 
z
" transform="scale(0.015625)"/>
      <path id="DejaVuSans-6c" d="M 603 4863 
L 1178 4863 
L 1178 0 
L 603 0 
L 603 4863 
z
" transform="scale(0.015625)"/>
      <path id="DejaVuSans-61" d="M 2194 1759 
Q 1497 1759 1228 1600 
Q 959 1441 959 1056 
Q 959 750 1161 570 
Q 1363 391 1709 391 
Q 2188 391 2477 730 
Q 2766 1069 2766 1631 
L 2766 1759 
L 2194 1759 
z
M 3341 1997 
L 3341 0 
L 2766 0 
L 2766 531 
Q 2569 213 2275 61 
Q 1981 -91 1556 -91 
Q 1019 -91 701 211 
Q 384 513 384 1019 
Q 384 1609 779 1909 
Q 1175 2209 1959 2209 
L 2766 2209 
L 2766 2266 
Q 2766 2663 2505 2880 
Q 2244 3097 1772 3097 
Q 1472 3097 1187 3025 
Q 903 2953 641 2809 
L 641 3341 
Q 956 3463 1253 3523 
Q 1550 3584 1831 3584 
Q 2591 3584 2966 3190 
Q 3341 2797 3341 1997 
z
" transform="scale(0.015625)"/>
      <path id="DejaVuSans-f3" d="M 1959 3097 
Q 1497 3097 1228 2736 
Q 959 2375 959 1747 
Q 959 1119 1226 758 
Q 1494 397 1959 397 
Q 2419 397 2687 759 
Q 2956 1122 2956 1747 
Q 2956 2369 2687 2733 
Q 2419 3097 1959 3097 
z
M 1959 3584 
Q 2709 3584 3137 3096 
Q 3566 2609 3566 1747 
Q 3566 888 3137 398 
Q 2709 -91 1959 -91 
Q 1206 -91 779 398 
Q 353 888 353 1747 
Q 353 2609 779 3096 
Q 1206 3584 1959 3584 
z
M 2394 5119 
L 3016 5119 
L 1998 3944 
L 1519 3944 
L 2394 5119 
z
" transform="scale(0.015625)"/>
      <path id="DejaVuSans-6e" d="M 3513 2113 
L 3513 0 
L 2938 0 
L 2938 2094 
Q 2938 2591 2744 2837 
Q 2550 3084 2163 3084 
Q 1697 3084 1428 2787 
Q 1159 2491 1159 1978 
L 1159 0 
L 581 0 
L 581 3500 
L 1159 3500 
L 1159 2956 
Q 1366 3272 1645 3428 
Q 1925 3584 2291 3584 
Q 2894 3584 3203 3211 
Q 3513 2838 3513 2113 
z
" transform="scale(0.015625)"/>
      <path id="DejaVuSans-20" transform="scale(0.015625)"/>
      <path id="DejaVuSans-76" d="M 191 3500 
L 800 3500 
L 1894 563 
L 2988 3500 
L 3597 3500 
L 2284 0 
L 1503 0 
L 191 3500 
z
" transform="scale(0.015625)"/>
      <path id="DejaVuSans-2e" d="M 684 794 
L 1344 794 
L 1344 0 
L 684 0 
L 684 794 
z
" transform="scale(0.015625)"/>
      <path id="DejaVuSans-70" d="M 1159 525 
L 1159 -1331 
L 581 -1331 
L 581 3500 
L 1159 3500 
L 1159 2969 
Q 1341 3281 1617 3432 
Q 1894 3584 2278 3584 
Q 2916 3584 3314 3078 
Q 3713 2572 3713 1747 
Q 3713 922 3314 415 
Q 2916 -91 2278 -91 
Q 1894 -91 1617 61 
Q 1341 213 1159 525 
z
M 3116 1747 
Q 3116 2381 2855 2742 
Q 2594 3103 2138 3103 
Q 1681 3103 1420 2742 
Q 1159 2381 1159 1747 
Q 1159 1113 1420 752 
Q 1681 391 2138 391 
Q 2594 391 2855 752 
Q 3116 1113 3116 1747 
z
" transform="scale(0.015625)"/>
     </defs>
     <use xlink:href="#DejaVuSans-52"/>
     <use xlink:href="#DejaVuSans-65" x="64.982422"/>
     <use xlink:href="#DejaVuSans-6c" x="126.505859"/>
     <use xlink:href="#DejaVuSans-61" x="154.289062"/>
     <use xlink:href="#DejaVuSans-63" x="215.568359"/>
     <use xlink:href="#DejaVuSans-69" x="270.548828"/>
     <use xlink:href="#DejaVuSans-f3" x="298.332031"/>
     <use xlink:href="#DejaVuSans-6e" x="359.513672"/>
     <use xlink:href="#DejaVuSans-20" x="422.892578"/>
     <use xlink:href="#DejaVuSans-50" x="454.679688"/>
     <use xlink:href="#DejaVuSans-65" x="511.357422"/>
     <use xlink:href="#DejaVuSans-73" x="572.880859"/>
     <use xlink:href="#DejaVuSans-6f" x="624.980469"/>
     <use xlink:href="#DejaVuSans-20" x="686.162109"/>
     <use xlink:href="#DejaVuSans-76" x="717.949219"/>
     <use xlink:href="#DejaVuSans-73" x="777.128906"/>
     <use xlink:href="#DejaVuSans-2e" x="829.228516"/>
     <use xlink:href="#DejaVuSans-70" x="861.015625"/>
     <use xlink:href="#DejaVuSans-72" x="924.492188"/>
     <use xlink:href="#DejaVuSans-65" x="963.355469"/>
     <use xlink:href="#DejaVuSans-63" x="1024.878906"/>
     <use xlink:href="#DejaVuSans-69" x="1079.859375"/>
     <use xlink:href="#DejaVuSans-6f" x="1107.642578"/>
    </g>
   </g>
  </g>
 </g>
 <defs>
  <clipPath id="pb107283299">
   <rect x="90" y="60.48" width="558" height="388.08"/>
  </clipPath>
 </defs>
</svg>
